<svg xmlns="http://www.w3.org/2000/svg" width="44.365" height="47.318" viewBox="0 0 44.365 47.318">
    <defs>
        <style>
            .cls-1{fill:#0a6ffb}
        </style>
    </defs>
    <path id="shield-alt-solid" d="M57.638 7.759L39.892.365a4.45 4.45 0 0 0-3.411 0L18.736 7.759A4.432 4.432 0 0 0 16 11.853C16 30.2 26.583 42.881 36.473 47a4.45 4.45 0 0 0 3.411 0c7.921-3.3 20.482-14.7 20.482-35.15a4.438 4.438 0 0 0-2.728-4.091zM38.192 41.273l-.009-35.215 16.257 6.775c-.305 13.993-7.588 24.133-16.248 28.44z" class="cls-1" transform="translate(-16 -.025)"/>
</svg>
